# xmcd
#
# Track frame offsets: 
#        150
#        14507
#        29015
#        42955
#        55367
#        67467
#        82152
#        93487
#        102767
#        115777
#        126235
#        139750
#        151870
#        164420
#        177257
#        189997
#        202235
#        215922
#        229230
#        239207
#        249182
#        261987
#        276090
#        288555
#        302067
#
# Disc length: 4246 seconds
#
# Revision: 5
# Processed by: cddbd v1.5.2PL0 Copyright (c) Steve Scherf et al.
# Submitted via: ExactAudioCopyFreeDBPlugin 1.0
#
DISCID=89109419
DTITLE=Booker T. and the M.G.'s - Soul Men
DYEAR=2003
DGENRE=Soul
TTITLE0=Baby, Scratch My Back
TTITLE1=Harlem Shuffle
TTITLE2=Hi-Heel Sneakers
TTITLE3=Downtown
TTITLE4=I Was Made to Love Her
TTITLE5=Georgia on My Mind
TTITLE6=Wade in the Water
TTITLE7=Fannie Mae
TTITLE8=Day Tripper
TTITLE9=You Left the Water Running
TTITLE10=Every Beat of My Heart
TTITLE11=Ain't That Peculiar
TTITLE12=You Can't Do That
TTITLE13=Wand Dang Doodle
TTITLE14=On a Saturday Night
TTITLE15=The Letter
TTITLE16=Oo Wee Baby, I Love You
TTITLE17=Spoonfull
TTITLE18=I Hear a Symphony
TTITLE19=You're So Fine
TTITLE20=Raunchy
TTITLE21=You Are My Sunshine
TTITLE22=Soul Man
TTITLE23=Gimme Some Lovin'
TTITLE24=When Something is Wrong with My Baby
EXTD=Label: Stax Records - Fantasy Inc.\nSCD-8610-2
EXTT0=
EXTT1=
EXTT2=
EXTT3=
EXTT4=
EXTT5=
EXTT6=
EXTT7=
EXTT8=
EXTT9=
EXTT10=
EXTT11=
EXTT12=
EXTT13=
EXTT14=
EXTT15=
EXTT16=
EXTT17=
EXTT18=
EXTT19=
EXTT20=
EXTT21=
EXTT22=
EXTT23=
EXTT24=
PLAYORDER=
